<svg viewBox="0 0 700 420" xmlns="http://www.w3.org/2000/svg" role="img" aria-labelledby="11-tool-use-and-verification-fig-02-title 11-tool-use-and-verification-fig-02-desc"><title id="11-tool-use-and-verification-fig-02-title">Protocol completion is not factual verification</title><desc id="11-tool-use-and-verification-fig-02-desc">Protocol completion is not factual verification. the shortcut from narration to verified is invalid.</desc><rect width="700" height="420" fill="#FFFFFF"/><defs><marker id="arrow" markerWidth="8" markerHeight="6" refX="7" refY="3" orient="auto"><polygon points="0 0,8 3,0 6" fill="#2a1a0e"/></marker></defs><text x="32" y="44" font-family="'EB Garamond', 'Garamond', Georgia, serif" font-size="20" fill="#2a1a0e">Protocol completion is not factual verification</text><rect x="42" y="128" width="92" height="54" rx="0" fill="#F5F5F5" stroke="#C8102E" stroke-width="2"/><text x="88" y="151" text-anchor="middle" font-family="'Inter', -apple-system, 'Helvetica Neue', sans-serif" font-size="11" font-weight="600" fill="#2a1a0e">tool</text><text x="88" y="169" text-anchor="middle" font-family="'Inter', -apple-system, 'Helvetica Neue', sans-serif" font-size="11" font-weight="600" fill="#2a1a0e">use</text><rect x="166" y="128" width="92" height="54" rx="0" fill="#FFFFFF" stroke="#2a1a0e" stroke-width="1"/><text x="212" y="151" text-anchor="middle" font-family="'Inter', -apple-system, 'Helvetica Neue', sans-serif" font-size="11" font-weight="600" fill="#2a1a0e">validate</text><rect x="290" y="128" width="92" height="54" rx="0" fill="#FFFFFF" stroke="#2a1a0e" stroke-width="1"/><text x="336" y="151" text-anchor="middle" font-family="'Inter', -apple-system, 'Helvetica Neue', sans-serif" font-size="11" font-weight="600" fill="#2a1a0e">dispatch</text><rect x="414" y="128" width="102" height="54" rx="0" fill="#FFFFFF" stroke="#2a1a0e" stroke-width="1"/><text x="465" y="151" text-anchor="middle" font-family="'Inter', -apple-system, 'Helvetica Neue', sans-serif" font-size="11" font-weight="600" fill="#2a1a0e">tool</text><text x="465" y="169" text-anchor="middle" font-family="'Inter', -apple-system, 'Helvetica Neue', sans-serif" font-size="11" font-weight="600" fill="#2a1a0e">result</text><rect x="548" y="128" width="104" height="54" rx="0" fill="#FFFFFF" stroke="#2a1a0e" stroke-width="1"/><text x="600" y="151" text-anchor="middle" font-family="'Inter', -apple-system, 'Helvetica Neue', sans-serif" font-size="11" font-weight="600" fill="#2a1a0e">final</text><text x="600" y="169" text-anchor="middle" font-family="'Inter', -apple-system, 'Helvetica Neue', sans-serif" font-size="11" font-weight="600" fill="#2a1a0e">claim</text><rect x="414" y="248" width="146" height="54" rx="0" fill="#FFFFFF" stroke="#2a1a0e" stroke-width="1"/><text x="487" y="271" text-anchor="middle" font-family="'Inter', -apple-system, 'Helvetica Neue', sans-serif" font-size="11" font-weight="600" fill="#2a1a0e">independent</text><text x="487" y="289" text-anchor="middle" font-family="'Inter', -apple-system, 'Helvetica Neue', sans-serif" font-size="11" font-weight="600" fill="#2a1a0e">check</text><path d="M 134 155 H 166 M 258 155 H 290 M 382 155 H 414 M 516 155 H 548" stroke="#2a1a0e" marker-end="url(#arrow)"/><path d="M 600 182 C 600 226 560 275 560 275" stroke="#2a1a0e" fill="none" marker-end="url(#arrow)"/><path d="M 600 128 C 600 78 474 78 474 110" stroke="#C8102E" stroke-width="2" stroke-dasharray="6 4" fill="none"/><path d="M 506 84 l 16 16 M 522 84 l -16 16" stroke="#C8102E" stroke-width="3"/><text x="508" y="70" text-anchor="middle" font-family="'Inter', -apple-system, 'Helvetica Neue', sans-serif" font-size="10" font-weight="600" fill="#2a1a0e">narration ≠ verified</text><path d="M 32 358 H 668" stroke="#C8860E" stroke-width="2"/><text x="350" y="386" text-anchor="middle" font-family="'Inter', -apple-system, 'Helvetica Neue', sans-serif" font-size="11" fill="#545454">the shortcut from narration to verified is invalid</text></svg>